<svg xmlns="http://www.w3.org/2000/svg" xmlns:xlink="http://www.w3.org/1999/xlink" version="1.1" width="256" height="256" viewBox="0 0 256 256" xml:space="preserve">

<defs>
</defs>
<g style="stroke: none; stroke-width: 0; stroke-dasharray: none; stroke-linecap: butt; stroke-linejoin: miter; stroke-miterlimit: 10; fill: none; fill-rule: nonzero; opacity: 1;" transform="translate(1.4065934065934016 1.4065934065934016) scale(2.81 2.81)" >
	<circle cx="45" cy="45" r="42" style="stroke: none; stroke-width: 1; stroke-dasharray: none; stroke-linecap: butt; stroke-linejoin: miter; stroke-miterlimit: 10; fill: rgb(239,165,0); fill-rule: nonzero; opacity: 1;" transform="  matrix(1 0 0 1 0 0) "/>
	<path d="M 52.856 71.387 c -0.845 0 -1.685 -0.354 -2.277 -1.046 L 32.848 49.679 c -0.763 -0.89 -0.938 -2.142 -0.449 -3.207 c 0.49 -1.064 1.554 -1.747 2.726 -1.747 h 10.075 c 4.492 0 8.146 -3.654 8.146 -8.146 s -3.654 -8.146 -8.146 -8.146 H 35.125 c -1.657 0 -3 -1.343 -3 -3 s 1.343 -3 3 -3 h 10.075 c 7.801 0 14.146 6.346 14.146 14.146 S 53 50.725 45.199 50.725 h -3.547 l 13.479 15.708 c 1.079 1.258 0.935 3.151 -0.322 4.23 C 54.243 71.149 53.548 71.387 52.856 71.387 z" style="stroke: none; stroke-width: 1; stroke-dasharray: none; stroke-linecap: butt; stroke-linejoin: miter; stroke-miterlimit: 10; fill: rgb(246,142,0); fill-rule: nonzero; opacity: 1;" transform=" matrix(1 0 0 1 0 0) " stroke-linecap="round" />
	<path d="M 62.876 28.432 H 35.125 c -1.657 0 -3 -1.343 -3 -3 s 1.343 -3 3 -3 h 27.751 c 1.657 0 3 1.343 3 3 S 64.533 28.432 62.876 28.432 z" style="stroke: none; stroke-width: 1; stroke-dasharray: none; stroke-linecap: butt; stroke-linejoin: miter; stroke-miterlimit: 10; fill: rgb(246,142,0); fill-rule: nonzero; opacity: 1;" transform=" matrix(1 0 0 1 0 0) " stroke-linecap="round" />
	<path d="M 62.876 39.578 H 35.125 c -1.657 0 -3 -1.343 -3 -3 s 1.343 -3 3 -3 h 27.751 c 1.657 0 3 1.343 3 3 S 64.533 39.578 62.876 39.578 z" style="stroke: none; stroke-width: 1; stroke-dasharray: none; stroke-linecap: butt; stroke-linejoin: miter; stroke-miterlimit: 10; fill: rgb(246,142,0); fill-rule: nonzero; opacity: 1;" transform=" matrix(1 0 0 1 0 0) " stroke-linecap="round" />
	<path d="M 46.732 83.853 C 26.752 82.186 11 65.403 11 45 S 26.752 7.814 46.732 6.147 V 0.132 C 23.44 1.813 5 21.287 5 45 c 0 23.713 18.44 43.187 41.732 44.868 V 83.853 z" style="stroke: none; stroke-width: 1; stroke-dasharray: none; stroke-linecap: butt; stroke-linejoin: miter; stroke-miterlimit: 10; fill: rgb(246,142,0); fill-rule: nonzero; opacity: 1;" transform=" matrix(1 0 0 1 0 0) " stroke-linecap="round" />
	<path d="M 45 90 C 20.187 90 0 69.813 0 45 C 0 20.187 20.187 0 45 0 c 24.813 0 45 20.187 45 45 C 90 69.813 69.813 90 45 90 z M 45 6 C 23.495 6 6 23.495 6 45 s 17.495 39 39 39 s 39 -17.495 39 -39 S 66.505 6 45 6 z" style="stroke: none; stroke-width: 1; stroke-dasharray: none; stroke-linecap: butt; stroke-linejoin: miter; stroke-miterlimit: 10; fill: rgb(255,222,80); fill-rule: nonzero; opacity: 1;" transform=" matrix(1 0 0 1 0 0) " stroke-linecap="round" />
	<path d="M 48.856 71.387 c -0.845 0 -1.685 -0.354 -2.277 -1.046 L 28.848 49.679 c -0.763 -0.89 -0.938 -2.142 -0.449 -3.207 c 0.49 -1.064 1.554 -1.747 2.726 -1.747 h 10.075 c 4.492 0 8.146 -3.654 8.146 -8.146 s -3.654 -8.146 -8.146 -8.146 H 31.125 c -1.657 0 -3 -1.343 -3 -3 s 1.343 -3 3 -3 h 10.075 c 7.801 0 14.146 6.346 14.146 14.146 S 49 50.725 41.199 50.725 h -3.547 l 13.479 15.708 c 1.079 1.258 0.935 3.151 -0.322 4.23 C 50.243 71.149 49.548 71.387 48.856 71.387 z" style="stroke: none; stroke-width: 1; stroke-dasharray: none; stroke-linecap: butt; stroke-linejoin: miter; stroke-miterlimit: 10; fill: rgb(255,222,80); fill-rule: nonzero; opacity: 1;" transform=" matrix(1 0 0 1 0 0) " stroke-linecap="round" />
	<path d="M 58.876 28.432 H 31.125 c -1.657 0 -3 -1.343 -3 -3 s 1.343 -3 3 -3 h 27.751 c 1.657 0 3 1.343 3 3 S 60.533 28.432 58.876 28.432 z" style="stroke: none; stroke-width: 1; stroke-dasharray: none; stroke-linecap: butt; stroke-linejoin: miter; stroke-miterlimit: 10; fill: rgb(255,222,80); fill-rule: nonzero; opacity: 1;" transform=" matrix(1 0 0 1 0 0) " stroke-linecap="round" />
	<path d="M 58.876 39.578 H 31.125 c -1.657 0 -3 -1.343 -3 -3 s 1.343 -3 3 -3 h 27.751 c 1.657 0 3 1.343 3 3 S 60.533 39.578 58.876 39.578 z" style="stroke: none; stroke-width: 1; stroke-dasharray: none; stroke-linecap: butt; stroke-linejoin: miter; stroke-miterlimit: 10; fill: rgb(255,222,80); fill-rule: nonzero; opacity: 1;" transform=" matrix(1 0 0 1 0 0) " stroke-linecap="round" />
</g>
</svg>